# xmcd
#
# Track frame offsets:
# 150
# 18011
# 44627
# 64977
# 93473
# 109290
# 136982
#
# Disc length: 2453 seconds
#
# Revision: 1
# Processed by: cddbd v1.5.2PL0 Copyright (c) Steve Scherf et al.
# Submitted via: CedeCatalogueitor 2.6.0.6 http://personales.ya.com/cdcatalogueitor
#
DISCID=5e099307
DTITLE=Mandalas - Barbarella On Acid
DYEAR=1900
DGENRE=
TTITLE0=Barbarella On Acid - Radio Edit
TTITLE1=Barbarella On Acid - Hazcaso Feel Love Remix
TTITLE2=Barbarella On Acid - Gato's Hostile Takeover Remix By J.Bardagi 6 Dj Gato
TTITLE3=Barbarella On Acid - Sergi Vila Club Mix
TTITLE4=Barbarella Onassis - Facto Mix
TTITLE5=Barbarella On Fire - Fire
TTITLE6=Barbarella On Discreta Acid - Electronica Discreta
EXTD=
EXTT0=
EXTT1=
EXTT2=
EXTT3=
EXTT4=
EXTT5=
EXTT6=
PLAYORDER=
